<?xml version="1.0" encoding="utf-8"?>
<!-- Generator: Adobe Illustrator 16.0.0, SVG Export Plug-In . SVG Version: 6.00 Build 0)  -->
<!DOCTYPE svg PUBLIC "-//W3C//DTD SVG 1.1//EN" "http://www.w3.org/Graphics/SVG/1.1/DTD/svg11.dtd">
<svg version="1.1" id="Layer_1" xmlns="http://www.w3.org/2000/svg" xmlns:xlink="http://www.w3.org/1999/xlink" x="0px" y="0px"
	 width="200px" height="150px" viewBox="0 0 200 150" enable-background="new 0 0 200 150" xml:space="preserve">
<path fill="#161817" d="M136.136,86.949c0.194-0.579,0.393-1.15,0.62-1.726c3.536-8.967,10.271-16.228,18.777-20.744
	c1.671-0.693,3.321-1.267,4.943-1.772c4.015-1.235,7.86-1.916,11.535-2.113c11.233-0.606,20.777,3.151,27.988,8.206V56.066
	c-9.212-4.87-20.068-7.005-31.154-5.526c-2.19,0.293-4.329,0.717-6.433,1.267c-3.523,0.924-6.901,2.216-10.097,3.81
	c-10.191,5.085-18.459,13.374-23.211,23.717c-6.253,1.272-11.895,3.916-16.611,7.52c-2.795,2.128-5.255,4.595-7.327,7.312
	c-0.312,0.409-0.581,0.845-0.874,1.265c-8.06,0.226-15.987,3.605-21.817,10.003c-4.112,4.518-6.599,9.951-7.547,15.573
	c-3.019,1.713-5.685,3.93-7.938,6.5c-0.426-0.108-0.841-0.236-1.274-0.326c-5.98-1.256-11.924-0.646-17.251,1.388
	c-10.526-6.065-24.138-5.552-34.283,2.383C7.926,135.853,4.07,142.704,2.838,150h9.547c1.108-4.479,3.666-8.626,7.569-11.681
	c5.513-4.318,12.501-5.467,18.782-3.751c3.234,0.889,6.276,2.541,8.832,4.903c2.831-1.87,6.088-3.087,9.533-3.459
	c1.494-0.164,3.03-0.162,4.573,0.002c0.703,0.073,1.407,0.171,2.109,0.32c2.475,0.521,4.752,1.464,6.795,2.716
	c1.11-2.473,2.655-4.729,4.591-6.615c0.326-0.317,0.689-0.6,1.038-0.896c2.205-1.884,4.787-3.361,7.665-4.229
	c-0.177-3.389,0.426-6.813,1.852-9.972c0.896-1.995,2.115-3.899,3.666-5.596c7.381-8.101,19.58-9.317,28.397-2.823l2.738,2.032
	l2.77-1.999c6.526-4.709,23.417-8.832,39.364-1.943c4.194,1.814,8.317,4.388,12.171,7.917c6.229-0.269,11.757,1.428,16.197,4.677
	c3.986,2.913,7.063,7.115,8.974,12.326v-17.003c-5.332-5.143-12.206-8.374-20.028-9.16c-16.851-15.042-41.247-17.476-59.437-6.214
	c-1.661-0.968-3.387-1.751-5.151-2.378c0.437-0.465,0.879-0.928,1.356-1.374C121.326,91.519,127.686,88.147,136.136,86.949z"/>
</svg>
