<?xml version="1.0" encoding="utf-8"?>
<!-- Generator: Adobe Illustrator 16.0.0, SVG Export Plug-In . SVG Version: 6.00 Build 0)  -->
<!DOCTYPE svg PUBLIC "-//W3C//DTD SVG 1.1//EN" "http://www.w3.org/Graphics/SVG/1.1/DTD/svg11.dtd">
<svg version="1.1" id="Layer_1" xmlns="http://www.w3.org/2000/svg" xmlns:xlink="http://www.w3.org/1999/xlink" x="0px" y="0px"
	 width="67px" height="67px" viewBox="0 0 67 67" enable-background="new 0 0 67 67" xml:space="preserve">
<path display="none" fill="#161817" d="M58.337-30.189c3.058,6.653,9.489,11.346,17.052,12.354
	c9.705,1.295,19.021-3.835,22.709-12.321c6.122-0.484,11.15-5.158,11.979-11.381c0.96-7.194-4.108-13.832-11.306-14.792
	l-18.623-2.485c-6.656-0.888-14.702-1.982-17.067-2.306l-0.688-0.096c-8.95-1.194-16.069,4.48-17.312,13.796
	C44.015-39.411,49.892-31.908,58.337-30.189z M61.62-32.718c-1.009-2.559-1.34-5.216-0.979-7.909
	c0.925-6.94,6.212-12.26,12.996-13.826c-4.974,3.109-8.51,8.205-9.325,14.316c-0.438,3.296-0.018,6.684,1.215,9.814
	c0.948,2.407,2.376,4.609,4.149,6.505C66.026-25.753,63.137-28.869,61.62-32.718z M71.504-29.624
	c0.803,2.035,1.925,3.909,3.312,5.573c-2.652-1.946-4.739-4.578-5.931-7.599c-1.021-2.59-1.355-5.286-0.991-8.009
	c0.827-6.191,5.078-11.111,10.771-13.274c-4.461,3.114-7.6,7.909-8.359,13.596C69.871-36.076,70.287-32.719,71.504-29.624z
	 M74.493-30.802c-1.036-2.625-1.371-5.351-1.005-8.109c0.854-6.38,5.297-11.421,11.213-13.543
	c-4.791,3.022-8.196,7.939-8.985,13.841c-0.424,3.192-0.019,6.481,1.179,9.511c0.907,2.304,2.235,4.406,3.916,6.231
	C77.952-24.867,75.753-27.607,74.493-30.802z M106.097-42.068c-0.621,4.66-4.626,8.072-9.319,7.935l-1.464-0.044l-0.487,1.381
	c-1.691,4.791-5.561,8.403-10.314,10.091c-2.412-1.96-4.259-4.442-5.376-7.281c-1.063-2.688-1.406-5.484-1.03-8.31
	c1.03-7.724,7.195-13.529,14.914-14.748l5.223,0.697C103.242-51.681,106.767-47.073,106.097-42.068z M61.863-57.235l0.674,0.094
	c0.935,0.125,2.754,0.375,5.024,0.686c-5.795,3.007-9.997,8.534-10.901,15.3c-0.28,2.113-0.21,4.265,0.195,6.36
	c-5.141-2.009-8.486-6.915-7.797-12.094C50.005-53.973,55.149-58.131,61.863-57.235z"/>
<g opacity="0.5">
	<rect fill="#2C2C2C" width="67" height="67"/>
	<g>
		<g>
			<path fill="#161817" d="M29.946,4.375c0.034-0.037,0.064-0.078,0.1-0.116C29.997,4.299,29.968,4.337,29.946,4.375z"/>
			<path fill="#161817" d="M47.713,12.008c-0.363-2.721-2.561-4.766-5.238-4.976c-1.611-3.711-5.686-5.955-9.931-5.389
				c-0.411,0.055-0.812,0.135-1.207,0.238c-0.661,0.173-1.295,0.416-1.895,0.715c-1.912,0.954-3.463,2.509-4.355,4.45
				c-1.173,0.238-2.231,0.734-3.117,1.411c-0.524,0.399-0.986,0.862-1.375,1.372c-1.022,1.344-1.536,3.021-1.305,4.752
				c0.46,3.45,2.767,5.75,5.838,6.058c3.162,2.823,7.739,3.279,11.152,1.166c2.318,1.353,5.291,0.926,7.141-1.103
				c0.771-0.849,1.238-1.867,1.416-2.923C46.82,16.653,48.031,14.403,47.713,12.008z M44.793,15.635
				c-0.451,0.438-1.008,0.774-1.633,0.962c0.033,0.636-0.08,1.278-0.348,1.871c-0.168,0.375-0.396,0.731-0.688,1.05
				c-1.385,1.52-3.674,1.748-5.328,0.529l-0.514-0.381l-0.52,0.375c-1.225,0.884-4.394,1.657-7.386,0.364
				c-0.787-0.34-1.561-0.824-2.284-1.485c-1.168,0.05-2.206-0.268-3.039-0.877c-1.074-0.785-1.807-2.059-2.025-3.694
				c-0.097-0.816,0.104-1.851,0.652-2.83c0.272-0.487,0.631-0.96,1.085-1.384c0.86-0.804,2.054-1.436,3.639-1.661
				c0.036-0.109,0.074-0.216,0.116-0.324c0.664-1.683,1.927-3.045,3.523-3.892c0.313-0.13,0.623-0.238,0.928-0.333
				c0.753-0.232,1.475-0.359,2.164-0.396c4.306-0.233,7.302,2.946,7.905,4.656l0.215,0.604l0.639-0.02
				c2.055-0.06,3.805,1.432,4.076,3.47C46.146,13.543,45.668,14.782,44.793,15.635z"/>
		</g>
		<g>
			<path fill="#161817" d="M61.877,20.405c-0.786-0.34-1.559-0.824-2.283-1.485c-1.168,0.05-2.204-0.268-3.037-0.877
				c-1.074-0.785-1.808-2.059-2.026-3.694c-0.097-0.816,0.104-1.851,0.652-2.83c0.272-0.487,0.63-0.96,1.086-1.384
				c0.859-0.804,2.052-1.436,3.639-1.661c0.035-0.109,0.072-0.216,0.115-0.324c0.664-1.683,1.929-3.045,3.523-3.892
				c0.313-0.13,0.622-0.238,0.927-0.333c0.753-0.232,1.476-0.359,2.165-0.396C66.761,3.523,66.879,3.529,67,3.527v-1.96
				c-0.317,0.011-0.636,0.033-0.956,0.076c-0.41,0.055-0.813,0.135-1.206,0.238c-0.662,0.173-1.295,0.416-1.894,0.715
				c-1.915,0.954-3.466,2.509-4.356,4.45c-1.174,0.238-2.232,0.734-3.117,1.411c-0.523,0.399-0.986,0.862-1.374,1.372
				c-1.023,1.344-1.537,3.021-1.306,4.752c0.46,3.45,2.766,5.75,5.839,6.058c2.358,2.107,5.507,2.894,8.37,2.279v-2.003
				C65.533,21.207,63.677,21.183,61.877,20.405z"/>
		</g>
		<g>
			<path fill="#161817" d="M14.213,12.008c-0.363-2.721-2.561-4.766-5.239-4.976C7.483,3.6,3.888,1.429,0,1.567v1.96
				c4.108-0.041,6.958,2.997,7.543,4.659L7.758,8.79l0.638-0.02c2.055-0.06,3.806,1.432,4.077,3.47
				c0.174,1.303-0.305,2.542-1.181,3.395c-0.45,0.438-1.006,0.774-1.632,0.962c0.034,0.636-0.08,1.278-0.349,1.871
				c-0.167,0.375-0.395,0.731-0.687,1.05c-1.386,1.52-3.675,1.748-5.328,0.529l-0.516-0.381l-0.518,0.375
				C1.775,20.393,0.972,20.721,0,20.915v2.003c0.974-0.208,1.914-0.578,2.779-1.114c2.321,1.353,5.292,0.926,7.143-1.103
				c0.771-0.849,1.239-1.867,1.414-2.923C13.32,16.653,14.532,14.403,14.213,12.008z"/>
		</g>
	</g>
	<g>
		<g>
			<path fill="#161817" d="M46.696,43.466c0.034,0.037,0.064,0.078,0.1,0.116C46.747,43.542,46.718,43.503,46.696,43.466z"/>
			<path fill="#161817" d="M61.588,30.062c-0.178-1.056-0.645-2.074-1.416-2.923c-1.85-2.028-4.822-2.455-7.141-1.103
				c-3.413-2.113-7.99-1.657-11.152,1.166c-3.07,0.309-5.378,2.608-5.838,6.058c-0.23,1.731,0.283,3.408,1.305,4.752
				c0.389,0.51,0.851,0.973,1.375,1.371c0.885,0.677,1.943,1.173,3.117,1.411c0.891,1.94,2.442,3.496,4.354,4.45
				c0.6,0.299,1.233,0.541,1.895,0.715c0.395,0.104,0.796,0.183,1.207,0.238c4.245,0.565,8.319-1.678,9.931-5.389
				c2.678-0.211,4.875-2.256,5.238-4.977C64.781,33.438,63.57,31.188,61.588,30.062z M62.723,35.601
				c-0.271,2.038-2.021,3.529-4.076,3.47l-0.639-0.02l-0.215,0.604c-0.604,1.71-3.6,4.889-7.905,4.656
				c-0.689-0.037-1.411-0.165-2.164-0.396c-0.305-0.096-0.614-0.203-0.928-0.333c-1.596-0.847-2.859-2.21-3.522-3.892
				c-0.043-0.108-0.08-0.215-0.117-0.324c-1.585-0.225-2.778-0.857-3.639-1.66c-0.454-0.424-0.812-0.896-1.085-1.385
				c-0.549-0.979-0.749-2.014-0.652-2.829c0.218-1.635,0.951-2.909,2.025-3.694c0.833-0.61,1.87-0.927,3.038-0.877
				c0.724-0.661,1.497-1.145,2.284-1.485c2.992-1.293,6.161-0.52,7.386,0.364l0.52,0.375l0.514-0.381
				c1.654-1.219,3.943-0.991,5.328,0.529c0.291,0.319,0.52,0.676,0.688,1.05c0.268,0.593,0.381,1.235,0.348,1.871
				c0.625,0.188,1.182,0.523,1.633,0.962C62.418,33.059,62.896,34.297,62.723,35.601z"/>
		</g>
		<path fill="#161817" d="M28.086,30.062c-0.175-1.056-0.643-2.074-1.414-2.923c-1.851-2.028-4.821-2.455-7.143-1.103
			c-0.865-0.536-1.806-0.905-2.779-1.114c-2.863-0.614-6.012,0.172-8.37,2.279c-3.073,0.309-5.379,2.608-5.839,6.058
			c-0.231,1.731,0.282,3.408,1.306,4.752c0.388,0.51,0.851,0.973,1.374,1.371c0.885,0.677,1.943,1.173,3.117,1.411
			c0.891,1.94,2.441,3.496,4.356,4.45c0.599,0.299,1.231,0.541,1.894,0.715c0.393,0.104,0.796,0.183,1.206,0.238
			c0.32,0.043,0.639,0.064,0.956,0.075c3.888,0.138,7.483-2.032,8.974-5.464c2.679-0.211,4.876-2.256,5.239-4.977
			C31.282,33.438,30.07,31.188,28.086,30.062z M29.223,35.601c-0.271,2.038-2.022,3.529-4.077,3.47l-0.638-0.02l-0.215,0.604
			c-0.585,1.661-3.435,4.699-7.543,4.658c-0.121-0.002-0.239,0.004-0.362-0.002c-0.689-0.037-1.412-0.165-2.165-0.396
			c-0.305-0.096-0.613-0.203-0.927-0.333c-1.595-0.847-2.859-2.21-3.523-3.892c-0.043-0.108-0.08-0.215-0.115-0.324
			c-1.587-0.225-2.779-0.857-3.639-1.66c-0.456-0.424-0.813-0.896-1.086-1.385c-0.548-0.979-0.749-2.014-0.652-2.829
			c0.219-1.635,0.952-2.909,2.026-3.694c0.833-0.61,1.869-0.927,3.037-0.877c0.725-0.661,1.497-1.145,2.283-1.485
			c1.8-0.778,3.656-0.801,5.123-0.509c0.972,0.193,1.775,0.521,2.264,0.874l0.518,0.375l0.516-0.381
			c1.653-1.219,3.942-0.991,5.328,0.529c0.292,0.319,0.52,0.676,0.687,1.05c0.269,0.593,0.383,1.235,0.349,1.871
			c0.626,0.188,1.182,0.523,1.632,0.962C28.918,33.059,29.396,34.297,29.223,35.601z"/>
	</g>
	<g>
		<g>
			<path fill="#161817" d="M29.946,46.697c0.034-0.037,0.064-0.078,0.1-0.117C29.997,46.621,29.968,46.658,29.946,46.697z"/>
			<path fill="#161817" d="M47.713,54.33c-0.363-2.723-2.561-4.766-5.238-4.977c-1.611-3.711-5.686-5.955-9.931-5.389
				c-0.411,0.055-0.812,0.135-1.207,0.238c-0.661,0.172-1.295,0.416-1.895,0.715c-1.912,0.953-3.463,2.508-4.355,4.449
				c-1.173,0.238-2.231,0.734-3.117,1.41c-0.524,0.4-0.986,0.863-1.375,1.373c-1.022,1.344-1.536,3.02-1.305,4.752
				c0.46,3.449,2.767,5.75,5.838,6.059c3.162,2.822,7.739,3.277,11.152,1.164c2.318,1.354,5.291,0.926,7.141-1.102
				c0.771-0.85,1.238-1.867,1.416-2.924C46.82,58.975,48.031,56.725,47.713,54.33z M44.793,57.957
				c-0.451,0.438-1.008,0.773-1.633,0.961c0.033,0.637-0.08,1.279-0.348,1.871c-0.168,0.375-0.396,0.73-0.688,1.051
				c-1.385,1.52-3.674,1.748-5.328,0.529l-0.514-0.383l-0.52,0.377c-1.225,0.883-4.394,1.656-7.386,0.363
				c-0.787-0.34-1.561-0.824-2.284-1.484c-1.168,0.049-2.206-0.268-3.039-0.877c-1.074-0.785-1.807-2.061-2.025-3.695
				c-0.097-0.816,0.104-1.85,0.652-2.83c0.272-0.486,0.631-0.959,1.085-1.383c0.86-0.805,2.054-1.436,3.639-1.66
				c0.036-0.109,0.074-0.217,0.116-0.324c0.664-1.684,1.927-3.045,3.523-3.893c0.313-0.131,0.623-0.238,0.928-0.332
				c0.753-0.232,1.475-0.359,2.164-0.396c4.306-0.232,7.302,2.945,7.905,4.656l0.215,0.604l0.639-0.02
				c2.055-0.061,3.805,1.432,4.076,3.471C46.146,55.865,45.668,57.104,44.793,57.957z"/>
		</g>
		<g>
			<path fill="#161817" d="M61.877,62.727c-0.786-0.34-1.559-0.824-2.283-1.484c-1.168,0.049-2.204-0.268-3.037-0.877
				c-1.074-0.785-1.808-2.061-2.026-3.695c-0.097-0.816,0.104-1.85,0.652-2.83c0.272-0.486,0.63-0.959,1.086-1.383
				c0.859-0.805,2.052-1.436,3.639-1.66c0.035-0.109,0.072-0.217,0.115-0.324c0.664-1.684,1.929-3.045,3.523-3.893
				c0.313-0.131,0.622-0.238,0.927-0.332c0.753-0.232,1.476-0.359,2.165-0.396c0.123-0.008,0.241-0.002,0.362-0.002v-1.961
				c-0.317,0.012-0.636,0.033-0.956,0.076c-0.41,0.055-0.813,0.135-1.206,0.238c-0.662,0.172-1.295,0.416-1.894,0.715
				c-1.915,0.953-3.466,2.508-4.356,4.449c-1.174,0.238-2.232,0.734-3.117,1.41c-0.523,0.4-0.986,0.863-1.374,1.373
				c-1.023,1.344-1.537,3.02-1.306,4.752c0.46,3.449,2.766,5.75,5.839,6.059c2.358,2.105,5.507,2.893,8.37,2.279v-2.004
				C65.533,63.527,63.677,63.504,61.877,62.727z"/>
		</g>
		<g>
			<path fill="#161817" d="M14.213,54.33c-0.363-2.723-2.561-4.766-5.239-4.977C7.483,45.922,3.888,43.75,0,43.889v1.961
				c4.108-0.041,6.958,2.996,7.543,4.658l0.215,0.604l0.638-0.02c2.055-0.061,3.806,1.432,4.077,3.471
				c0.174,1.303-0.305,2.541-1.181,3.395c-0.45,0.438-1.006,0.773-1.632,0.961c0.034,0.637-0.08,1.279-0.349,1.871
				c-0.167,0.375-0.395,0.73-0.687,1.051c-1.386,1.52-3.675,1.748-5.328,0.529l-0.516-0.383l-0.518,0.377
				C1.775,62.715,0.972,63.043,0,63.236v2.004c0.974-0.209,1.914-0.578,2.779-1.115c2.321,1.354,5.292,0.926,7.143-1.102
				c0.771-0.85,1.239-1.867,1.414-2.924C13.32,58.975,14.532,56.725,14.213,54.33z"/>
		</g>
	</g>
</g>
</svg>
