<?xml version="1.0" encoding="utf-8"?>
<!-- Generator: Adobe Illustrator 16.0.0, SVG Export Plug-In . SVG Version: 6.00 Build 0)  -->
<!DOCTYPE svg PUBLIC "-//W3C//DTD SVG 1.1//EN" "http://www.w3.org/Graphics/SVG/1.1/DTD/svg11.dtd">
<svg version="1.1" id="Layer_1" xmlns="http://www.w3.org/2000/svg" xmlns:xlink="http://www.w3.org/1999/xlink" x="0px" y="0px"
	 width="179px" height="154px" viewBox="0 0 179 154" enable-background="new 0 0 179 154" xml:space="preserve">
<g>
	<path d="M132.318,32.022C122.574,16.594,105.146,7.119,86.14,7.119c-24.395,0-45.722,15.748-52.035,37.916
		C19.149,48.242,8.27,61.447,8.27,77.093c0,18.085,14.714,32.8,32.799,32.8h46.813c16.728,0,36.959,0.061,42.915,0.078l1.732,0.006
		c22.492,0,38.201-16.355,38.201-39.773C170.73,50.074,153.747,33.481,132.318,32.022z M125.046,39.34
		c3.335,5.989,5.026,12.451,5.026,19.207c0,17.454-11.307,32.338-27.545,38.43c11.255-9.318,18.31-23.061,18.31-38.43
		c0-8.274-2.153-16.515-6.226-23.828c-3.141-5.644-7.387-10.61-12.395-14.709C111.866,23.589,120.033,30.333,125.046,39.34z
		 M99.611,34.962c-2.649-4.76-6.041-9.019-10.014-12.677c7.196,3.937,13.217,9.746,17.149,16.812
		c3.377,6.064,5.089,12.608,5.089,19.45c0,15.568-8.882,29.116-22.23,36.333c9.995-9.157,16.168-22.032,16.168-36.333
		C105.773,50.357,103.643,42.201,99.611,34.962z M92.621,38.854c3.419,6.139,5.152,12.765,5.152,19.693
		c0,16.042-9.318,29.954-23.229,37.151c10.837-9.041,17.625-22.313,17.625-37.151c0-8.02-2.088-16.008-6.037-23.099
		c-3.005-5.399-6.978-10.149-11.729-14.098C82.122,25.334,88.457,31.371,92.621,38.854z M18.27,77.093
		c0-11.716,8.774-21.463,20.41-22.673l3.628-0.377l0.748-3.57c2.596-12.383,10.972-22.582,22.153-28.318
		c6.602,4.047,11.984,9.569,15.681,16.213c3.503,6.29,5.279,13.079,5.279,20.18c0,19.42-13.32,35.792-31.98,41.345h-13.12
		C28.497,99.893,18.27,89.664,18.27,77.093z M132.529,99.977l-1.701-0.006c-2.352-0.007-6.928-0.021-12.633-0.035
		c13.318-9.342,21.877-24.375,21.877-41.389c0-5.308-0.885-10.599-2.577-15.647c13.364,3.272,23.235,14.289,23.235,27.303
		C160.73,88.011,149.396,99.977,132.529,99.977z"/>
	<path d="M35.17,126.82c1.44,0,2.49-0.42,2.49-1.979s-1.05-1.98-2.49-1.98H24.34c-1.74,0-2.88,0.69-2.88,2.882v16.647
		c0,1.471,0.96,2.461,2.46,2.461s2.46-0.99,2.46-2.461v-6.748h7.439c1.29,0,2.31-0.36,2.31-1.892c0-1.528-1.02-1.89-2.31-1.89H26.38
		v-5.041H35.17z"/>
	<path d="M52.601,132.882c0-3.149-2.91-4.5-7.11-4.5c-4.5,0-6.96,2.22-6.96,3.96c0,0.899,0.75,1.68,1.86,1.68
		c1.74,0,1.83-2.399,5.069-2.399c1.47,0,2.76,0.54,2.76,1.801s-0.84,1.499-1.89,1.619l-2.67,0.301c-3.36,0.39-6.12,1.409-6.12,5.039
		c0,2.761,2.46,4.47,4.95,4.47c2.31,0,4.29-0.658,6-2.55c0.06,1.351,0.69,2.55,2.58,2.55c1.05,0,1.98-0.688,1.98-1.68
		c0-0.689-0.45-1.109-0.45-2.939L52.601,132.882L52.601,132.882z M48.221,138.791c0,1.62-1.47,3.18-3.87,3.18
		c-1.5,0-2.43-0.81-2.43-1.8c0-1.319,0.99-1.89,2.82-2.16l1.59-0.239c0.51-0.09,1.41-0.239,1.89-0.689V138.791z"/>
	<path d="M63.22,131.65c1.29,0,1.98-0.39,1.98-1.438c0-1.051-0.69-1.44-1.98-1.44H61.9v-2.67c0-1.438-0.87-2.188-2.19-2.188
		s-2.19,0.75-2.19,2.188v2.67h-0.75c-1.23,0-1.74,0.48-1.74,1.44s0.51,1.438,1.74,1.438h0.75v9.301c0,2.58,1.32,3.898,4.5,3.898
		c2.1,0,3.18-0.688,3.18-1.949c0-0.93-0.57-1.471-1.53-1.471h-0.63c-0.78,0-1.14-0.359-1.14-1.02v-8.76H63.22L63.22,131.65z"/>
	<path d="M87.07,126.313c4.5,0,3.661,3.899,6.51,3.899c1.47,0,2.22-0.841,2.22-2.221c0-2.101-3.09-5.64-8.729-5.64
		c-6.959,0-10.56,5.219-10.56,11.31c0,7.44,3.99,11.31,10.74,11.31c4.771,0,8.549-3.09,8.549-6.21c0-1.198-1.2-1.89-2.399-1.89
		c-2.369,0-2.279,4.14-6.149,4.14c-4.26,0-5.82-3.42-5.82-7.35C81.43,128.98,83.98,126.313,87.07,126.313z"/>
	<path d="M100.75,122.473c-1.32,0-2.189,0.75-2.189,2.189v17.999c0,1.438,0.869,2.188,2.189,2.188s2.189-0.75,2.189-2.188v-17.999
		C102.939,123.223,102.07,122.473,100.75,122.473z"/>
	<path d="M114.1,128.382c-5.279,0-8.1,3.601-8.1,8.22c0,4.381,2.13,8.25,8.1,8.25c5.971,0,8.101-3.869,8.101-8.25
		C122.199,131.98,119.379,128.382,114.1,128.382z M114.1,141.611c-2.609,0-3.72-2.34-3.72-5.01c0-2.852,1.17-4.98,3.72-4.98
		c2.551,0,3.721,2.13,3.721,4.98C117.818,139.271,116.709,141.611,114.1,141.611z"/>
	<path d="M137.68,128.382c-1.709,0-2.189,1.021-2.189,2.188v7.229c0,2.19-1.801,3.45-3.33,3.45c-1.891,0-2.76-1.26-2.76-3.029v-7.65
		c0-1.17-0.48-2.188-2.19-2.188s-2.19,1.021-2.19,2.188v8.521c0,4.44,2.881,5.761,5.521,5.761c2.489,0,4.08-1.141,5.31-2.761h0.061
		v0.57c0,1.319,0.6,2.188,1.98,2.188c1.379,0,1.979-0.869,1.979-2.188V130.57C139.87,129.4,139.391,128.382,137.68,128.382z"/>
	<path d="M156.009,122.473c-1.319,0-2.19,0.75-2.19,2.189v5.939h-0.06c-0.87-1.41-2.37-2.221-4.319-2.221
		c-4.621,0-6.75,3.93-6.75,8.13c0,5.669,3.209,8.339,6.869,8.339c2.131,0,3.9-0.898,4.621-2.76h0.059v0.69
		c0,1.35,0.691,2.069,1.98,2.069c1.35,0,1.98-0.721,1.98-2.069v-18.119C158.199,123.223,157.329,122.473,156.009,122.473z
		 M150.549,141.432c-2.34-0.061-3.479-2.189-3.479-4.771c0-2.04,0.689-4.859,3.479-4.859c2.67-0.03,3.51,2.609,3.51,4.859
		C154.061,139.15,153.1,141.432,150.549,141.432z"/>
</g>
</svg>
