<?xml version="1.0" encoding="utf-8"?>
<!-- Generator: Adobe Illustrator 16.0.0, SVG Export Plug-In . SVG Version: 6.00 Build 0)  -->
<!DOCTYPE svg PUBLIC "-//W3C//DTD SVG 1.1//EN" "http://www.w3.org/Graphics/SVG/1.1/DTD/svg11.dtd">
<svg version="1.1" id="Layer_1" xmlns="http://www.w3.org/2000/svg" xmlns:xlink="http://www.w3.org/1999/xlink" x="0px" y="0px"
	 width="398.038px" height="67px" viewBox="0 0 398.038 67" enable-background="new 0 0 398.038 67" xml:space="preserve">
<path display="none" fill="none" stroke="#000000" stroke-width="4" stroke-miterlimit="10" d="M293.625,224.438
	c-2.346-1.013-5.125-1.188-7.25-0.25c-1.75-5.875-7.579-10.104-13.958-10.104c-6.088,0-11.312,3.585-13.563,8.701
	c-0.471-0.069-0.943-0.117-1.437-0.117c-5.385,0-9.75,4.365-9.75,9.75s4.365,9.75,9.75,9.75c2.367,0,28.493,0,31.417,0
	c5.359,0,9.764-2.354,9.791-7.854C298.648,229.75,297.168,225.968,293.625,224.438z"/>
<path display="none" fill="none" stroke="#000000" stroke-width="4" stroke-miterlimit="10" d="M347.518,218.32
	c-1.687,0-3.293,0.306-4.768,0.847c-2.719-3.114-6.811-5.083-11.161-5.083c-6.088,0-11.312,3.585-13.562,8.701
	c-0.474-0.069-0.946-0.117-1.438-0.117c-5.385,0-9.75,4.365-9.75,9.75s4.365,9.75,9.75,9.75c2.367,0,28.493,0,31.417,0
	c0.021,0,0.032-0.001,0.049-0.001c0.204,0.01,0.407,0.031,0.612,0.031c7.065,0,11.646-5.113,11.646-12.196
	C360.312,223.549,354.583,218.32,347.518,218.32z"/>
<g display="none">
	<path display="inline" fill="none" stroke="#000000" stroke-width="4" stroke-miterlimit="10" d="M507.594,188.331"/>
</g>
<g display="none">
	<g display="inline">
		<path d="M484.893,262.018h-46.904c-18.476,0-33.501-15.024-33.501-33.5c0-15.838,10.914-29.227,25.978-32.651
			c6.541-22.253,28.033-38.022,52.594-38.022c20.251,0,38.742,10.621,48.263,27.721c4.171,7.49,6.376,15.935,6.376,24.412
			c0,28.19-23.148,51.053-52.699,52.045h-0.104L484.893,262.018L484.893,262.018z M483.055,169.246
			c-20.582,0-38.413,13.792-42.396,32.794l-0.854,4.071l-4.138,0.431c-11.276,1.172-19.78,10.618-19.78,21.974
			c0,12.188,9.912,22.101,22.101,22.101h46.717c23.324-0.828,41.584-18.664,41.584-40.646c0-6.635-1.662-12.979-4.938-18.865
			C513.842,177.621,499.171,169.246,483.055,169.246z"/>
	</g>
</g>
<g display="none">
	<path display="inline" d="M529.445,262.102l-1.734-0.006c-5.956-0.017-26.188-0.078-42.913-0.078v-11.4
		c16.74,0,36.985,0.062,42.946,0.074l1.701,0.009c16.443,0,27.498-11.685,27.498-29.07c0-15.146-13.743-27.522-30.64-27.593
		l0.044-11.405c23.158,0.095,41.997,17.587,41.997,38.998C568.349,245.458,552.354,262.102,529.445,262.102z"/>
</g>
<g display="none">
	<path display="inline" d="M466.229,261.303l-0.334-9.974c23.76-0.796,42.366-18.963,42.366-41.358
		c0-6.757-1.688-13.221-5.024-19.212c-6.287-11.299-17.974-19.36-31.259-21.571l1.642-9.842c16.255,2.7,30.586,12.629,38.338,26.562
		c4.112,7.387,6.287,15.709,6.287,24.063C518.241,237.777,495.396,260.325,466.229,261.303z"/>
</g>
<g display="none">
	<path display="inline" d="M451.642,260.59l-0.28-8.548c24.144-0.81,43.055-19.289,43.055-42.071c0-6.88-1.721-13.461-5.117-19.559
		c-5.321-9.562-14.203-16.766-25.006-20.284l2.648-8.133c12.858,4.188,23.453,12.804,29.827,24.256
		c4.058,7.281,6.197,15.483,6.197,23.72C502.966,237.393,480.421,259.625,451.642,260.59z"/>
</g>
<g display="none">
	<path display="inline" d="M436.367,259.88v-7.128h2.525c24.409-0.82,43.625-19.611,43.625-42.781c0-7.002-1.75-13.699-5.205-19.906
		c-4.388-7.879-11.146-14.189-19.555-18.262l3.107-6.414c9.729,4.709,17.57,12.045,22.671,21.209
		c3.995,7.176,6.104,15.258,6.104,23.373c0,27.034-22.237,48.955-50.634,49.907L436.367,259.88z"/>
</g>
<g display="none">
	<path display="inline" d="M417.935,280.839h12.412v2.495h-9.436v7.659h8.721v2.462h-8.721v10.43h-2.979L417.935,280.839
		L417.935,280.839z"/>
	<path display="inline" d="M442.119,303.885l-0.239-2.085h-0.103c-0.929,1.3-2.701,2.462-5.062,2.462
		c-3.35,0-5.059-2.355-5.059-4.754c0-4.001,3.555-6.188,9.951-6.156v-0.338c0-1.371-0.379-3.832-3.766-3.832
		c-1.54,0-3.146,0.479-4.311,1.23l-0.686-1.982c1.366-0.892,3.354-1.471,5.438-1.471c5.062,0,6.293,3.453,6.293,6.77v6.189
		c0,1.438,0.065,2.84,0.271,3.967H442.119z M441.674,295.439c-3.283-0.068-7.008,0.513-7.008,3.727c0,1.949,1.297,2.873,2.837,2.873
		c2.155,0,3.522-1.367,4.001-2.771c0.104-0.306,0.17-0.646,0.17-0.957V295.439L441.674,295.439z"/>
	<path display="inline" d="M452.934,282.582v4.753h4.312v2.292h-4.312v8.924c0,2.053,0.582,3.217,2.263,3.217
		c0.782,0,1.362-0.104,1.739-0.207l0.14,2.256c-0.579,0.238-1.503,0.412-2.667,0.412c-1.4,0-2.528-0.442-3.247-1.268
		c-0.854-0.889-1.164-2.357-1.164-4.309v-9.025h-2.563v-2.292h2.563v-3.968L452.934,282.582z"/>
	<path display="inline" d="M484.097,303.134c-1.095,0.546-3.28,1.095-6.087,1.095c-6.499,0-11.388-4.104-11.388-11.662
		c0-7.217,4.889-12.104,12.036-12.104c2.874,0,4.687,0.618,5.472,1.028l-0.719,2.428c-1.127-0.549-2.733-0.958-4.649-0.958
		c-5.397,0-8.992,3.455-8.992,9.506c0,5.643,3.248,9.27,8.855,9.27c1.812,0,3.659-0.377,4.855-0.959L484.097,303.134z"/>
	<path display="inline" d="M487.732,279.607h3.008v24.273h-3.008V279.607z"/>
	<path display="inline" d="M510.785,295.475c0,6.119-4.241,8.787-8.242,8.787c-4.48,0-7.933-3.283-7.933-8.516
		c0-5.54,3.622-8.787,8.204-8.787C507.568,286.959,510.785,290.412,510.785,295.475z M497.653,295.645
		c0,3.625,2.086,6.361,5.022,6.361c2.873,0,5.025-2.704,5.025-6.43c0-2.805-1.4-6.361-4.956-6.361S497.653,292.5,497.653,295.645z"
		/>
	<path display="inline" d="M528.438,299.372c0,1.709,0.036,3.213,0.144,4.513h-2.668l-0.173-2.699h-0.066
		c-0.788,1.332-2.531,3.076-5.472,3.076c-2.604,0-5.71-1.438-5.71-7.25v-9.677h3.007v9.163c0,3.146,0.958,5.27,3.694,5.27
		c2.017,0,3.42-1.4,3.965-2.734c0.173-0.445,0.272-0.991,0.272-1.54v-10.154h3.011L528.438,299.372L528.438,299.372z"/>
	<path display="inline" d="M547.736,279.607v20.004c0,1.47,0.033,3.146,0.136,4.271h-2.7l-0.137-2.873h-0.069
		c-0.922,1.851-2.938,3.249-5.642,3.249c-4.001,0-7.078-3.386-7.078-8.408c-0.036-5.508,3.387-8.894,7.421-8.894
		c2.531,0,4.24,1.196,4.992,2.526h0.063v-9.881h3.014V279.607L547.736,279.607z M544.727,294.07c0-0.377-0.03-0.889-0.137-1.264
		c-0.443-1.916-2.086-3.49-4.341-3.49c-3.113,0-4.959,2.734-4.959,6.396c0,3.351,1.64,6.12,4.89,6.12
		c2.021,0,3.864-1.334,4.41-3.589c0.104-0.412,0.137-0.821,0.137-1.302V294.07z"/>
</g>
<g>
	<path fill="#EEEEEE" d="M64.646,13.04C59.576,5.008,50.505,0.08,40.615,0.08c-12.698,0-23.798,8.198-27.081,19.732
		C5.75,21.479,0.089,28.354,0.089,36.495c0,9.411,7.656,17.07,17.069,17.07H41.52c8.706,0,19.234,0.03,22.334,0.038l0.902,0.003
		c11.704,0,19.882-8.509,19.882-20.696C84.636,22.436,75.796,13.801,64.646,13.04z M60.862,16.849
		c1.734,3.117,2.614,6.479,2.614,9.996c0,9.086-5.883,16.829-14.333,19.999c5.856-4.85,9.53-11.999,9.53-19.999
		c0-4.305-1.122-8.595-3.241-12.402c-1.635-2.936-3.845-5.52-6.452-7.655C54.003,8.652,58.251,12.16,60.862,16.849z M47.624,14.571
		c-1.375-2.473-3.143-4.694-5.21-6.596c3.745,2.048,6.881,5.07,8.923,8.75c1.759,3.154,2.651,6.561,2.651,10.122
		c0,8.1-4.623,15.152-11.571,18.907c5.202-4.766,8.418-11.465,8.418-18.907C50.831,22.583,49.719,18.34,47.624,14.571z
		 M43.986,16.597c1.78,3.193,2.684,6.643,2.684,10.248c0,8.352-4.85,15.586-12.091,19.333c5.636-4.705,9.172-11.607,9.172-19.333
		c0-4.173-1.086-8.331-3.143-12.021c-1.563-2.81-3.631-5.28-6.104-7.336C38.52,9.561,41.82,12.703,43.986,16.597z M5.292,36.498
		c0-6.1,4.568-11.172,10.623-11.801l1.887-0.198l0.392-1.855c1.35-6.445,5.707-11.752,11.525-14.739
		c3.437,2.107,6.237,4.98,8.163,8.436c1.822,3.277,2.748,6.808,2.748,10.502c0,10.106-6.934,18.63-16.644,21.517h-6.828
		C10.614,48.36,5.292,43.037,5.292,36.498z M64.754,48.405l-0.883-0.004c-1.224-0.005-3.605-0.012-6.575-0.019
		c6.93-4.86,11.381-12.688,11.381-21.543c0-2.761-0.457-5.516-1.341-8.141c6.959,1.7,12.096,7.433,12.096,14.211
		C79.432,42.179,73.534,48.405,64.754,48.405z"/>
	<path fill="#EEEEEE" d="M132.252,11.889c3.144,0,5.438-0.917,5.438-4.324c0-3.405-2.295-4.325-5.438-4.325h-23.657
		c-3.803,0-6.292,1.505-6.292,6.296v36.362c0,3.214,2.097,5.379,5.372,5.379c3.277,0,5.374-2.165,5.374-5.379V31.161h16.25
		c2.82,0,5.048-0.789,5.048-4.137c0-3.335-2.228-4.128-5.048-4.128h-16.25v-11.01h19.203V11.889z"/>
	<path fill="#EEEEEE" d="M170.331,25.133c0-6.881-6.357-9.834-15.533-9.834c-9.83,0-15.204,4.85-15.204,8.65
		c0,1.964,1.638,3.67,4.063,3.67c3.801,0,3.996-5.235,11.074-5.235c3.209,0,6.028,1.177,6.028,3.93c0,2.758-1.837,3.276-4.128,3.536
		l-5.834,0.657c-7.34,0.854-13.367,3.077-13.367,11.006c0,6.035,5.371,9.767,10.812,9.767c5.045,0,9.368-1.437,13.106-5.568
		c0.132,2.952,1.504,5.568,5.633,5.568c2.296,0,4.329-1.502,4.329-3.671c0-1.503-0.984-2.423-0.984-6.42L170.331,25.133
		L170.331,25.133z M160.76,38.038c0,3.539-3.209,6.944-8.453,6.944c-3.273,0-5.308-1.769-5.308-3.933
		c0-2.884,2.164-4.127,6.161-4.717l3.474-0.522c1.111-0.192,3.081-0.521,4.126-1.504V38.038z"/>
	<path fill="#EEEEEE" d="M193.526,22.44c2.817,0,4.325-0.853,4.325-3.143c0-2.296-1.508-3.146-4.325-3.146h-2.883v-5.833
		c0-3.139-1.904-4.779-4.784-4.779c-2.889,0-4.787,1.64-4.787,4.779v5.833h-1.64c-2.684,0-3.798,1.048-3.798,3.146
		c0,2.096,1.114,3.143,3.798,3.143h1.64v20.318c0,5.633,2.886,8.517,9.83,8.517c4.591,0,6.949-1.508,6.949-4.26
		c0-2.035-1.244-3.214-3.344-3.214h-1.374c-1.705,0-2.49-0.784-2.49-2.229V22.437h2.883V22.44z"/>
	<path fill="#EEEEEE" d="M242.368,10.78c9.83,0,7.995,8.518,14.221,8.518c3.211,0,4.848-1.836,4.848-4.852
		c0-4.588-6.746-12.318-19.068-12.318c-15.2,0-23.066,11.399-23.066,24.704c0,16.253,8.716,24.703,23.463,24.703
		c10.419,0,18.672-6.746,18.672-13.565c0-2.616-2.62-4.127-5.242-4.127c-5.171,0-4.975,9.045-13.43,9.045
		c-9.306,0-12.714-7.473-12.714-16.056C230.047,16.607,235.616,10.78,242.368,10.78z"/>
	<path fill="#EEEEEE" d="M272.25,2.39c-2.884,0-4.782,1.64-4.782,4.784v39.319c0,3.141,1.898,4.781,4.782,4.781
		c2.889,0,4.785-1.641,4.785-4.781V7.174C277.035,4.03,275.139,2.39,272.25,2.39z"/>
	<path fill="#EEEEEE" d="M301.416,15.298c-11.535,0-17.695,7.869-17.695,17.958c0,9.571,4.654,18.021,17.695,18.021
		c13.04,0,17.692-8.449,17.692-18.021C319.106,23.163,312.947,15.298,301.416,15.298z M301.416,44.197
		c-5.699,0-8.128-5.11-8.128-10.941c0-6.231,2.557-10.882,8.128-10.882c5.569,0,8.125,4.653,8.125,10.882
		C309.539,39.087,307.112,44.197,301.416,44.197z"/>
	<path fill="#EEEEEE" d="M352.922,15.298c-3.729,0-4.779,2.229-4.779,4.782v15.789c0,4.787-3.936,7.537-7.275,7.537
		c-4.134,0-6.03-2.75-6.03-6.612V20.081c0-2.556-1.049-4.782-4.781-4.782c-3.737,0-4.784,2.229-4.784,4.782v18.613
		c0,9.697,6.291,12.583,12.06,12.583c5.438,0,8.914-2.489,11.598-6.029h0.138v1.246c0,2.883,1.312,4.781,4.32,4.781
		c3.012,0,4.327-1.898,4.327-4.781V20.081C357.708,17.524,356.663,15.298,352.922,15.298z"/>
	<path fill="#EEEEEE" d="M392.962,2.39c-2.88,0-4.786,1.64-4.786,4.784v12.975h-0.128c-1.901-3.081-5.182-4.854-9.435-4.854
		c-10.098,0-14.744,8.587-14.744,17.759c0,12.387,7.009,18.221,15.003,18.221c4.654,0,8.519-1.965,10.098-6.034h0.127v1.508
		c0,2.951,1.512,4.522,4.325,4.522c2.945,0,4.325-1.575,4.325-4.522V7.17C397.747,4.03,395.847,2.39,392.962,2.39z M381.037,43.809
		c-5.114-0.135-7.603-4.78-7.603-10.424c0-4.455,1.51-10.615,7.603-10.615c5.826-0.066,7.667,5.698,7.667,10.615
		C388.708,38.82,386.606,43.809,381.037,43.809z"/>
</g>
</svg>
