<?xml version="1.0" encoding="utf-8"?>
<!-- Generator: Adobe Illustrator 16.0.0, SVG Export Plug-In . SVG Version: 6.00 Build 0)  -->
<!DOCTYPE svg PUBLIC "-//W3C//DTD SVG 1.1//EN" "http://www.w3.org/Graphics/SVG/1.1/DTD/svg11.dtd">
<svg version="1.1" id="Layer_1" xmlns="http://www.w3.org/2000/svg" xmlns:xlink="http://www.w3.org/1999/xlink" x="0px" y="0px"
	 width="225.393px" height="30.422px" viewBox="0 6.578 225.393 30.422" enable-background="new 0 6.578 225.393 30.422"
	 xml:space="preserve">
<path display="none" fill="none" stroke="#000000" stroke-width="4" stroke-miterlimit="10" d="M293.625,224.438
	c-2.346-1.013-5.125-1.188-7.25-0.25c-1.75-5.875-7.579-10.104-13.958-10.104c-6.088,0-11.312,3.585-13.563,8.701
	c-0.471-0.069-0.944-0.117-1.437-0.117c-5.385,0-9.75,4.365-9.75,9.75s4.365,9.75,9.75,9.75c2.367,0,28.493,0,31.417,0
	c5.359,0,9.764-2.354,9.791-7.854C298.648,229.75,297.168,225.968,293.625,224.438z"/>
<path display="none" fill="none" stroke="#000000" stroke-width="4" stroke-miterlimit="10" d="M347.518,218.32
	c-1.687,0-3.293,0.306-4.768,0.847c-2.719-3.114-6.811-5.083-11.161-5.083c-6.088,0-11.312,3.585-13.562,8.701
	c-0.473-0.069-0.946-0.117-1.438-0.117c-5.385,0-9.75,4.365-9.75,9.75s4.365,9.75,9.75,9.75c2.367,0,28.493,0,31.417,0
	c0.02,0,0.032-0.001,0.049-0.001c0.204,0.01,0.407,0.031,0.612,0.031c7.065,0,11.646-5.113,11.646-12.196
	C360.312,223.549,354.583,218.32,347.518,218.32z"/>
<g display="none">
	<path display="inline" fill="none" stroke="#000000" stroke-width="4" stroke-miterlimit="10" d="M507.594,188.331"/>
</g>
<g display="none">
	<g display="inline">
		<path d="M484.893,262.018h-46.905c-18.475,0-33.501-15.025-33.501-33.5c0-15.838,10.914-29.227,25.978-32.652
			c6.541-22.254,28.033-38.022,52.594-38.022c20.251,0,38.742,10.621,48.262,27.72c4.171,7.492,6.376,15.935,6.376,24.412
			c0,28.191-23.148,51.053-52.699,52.045h-0.104V262.018z M483.055,169.246c-20.582,0-38.413,13.792-42.396,32.794l-0.854,4.071
			l-4.138,0.431c-11.276,1.172-19.78,10.618-19.78,21.974c0,12.188,9.912,22.1,22.1,22.1h46.717
			c23.324-0.828,41.584-18.664,41.584-40.645c0-6.635-1.662-12.979-4.938-18.865C513.842,177.621,499.171,169.246,483.055,169.246z"
			/>
	</g>
</g>
<g display="none">
	<path display="inline" d="M529.445,262.102l-1.734-0.006c-5.956-0.017-26.188-0.078-42.913-0.078v-11.401
		c16.74,0,36.985,0.062,42.946,0.075l1.701,0.006c16.444,0,27.498-11.682,27.498-29.068c0-15.146-13.743-27.523-30.639-27.593
		l0.044-11.405c23.158,0.094,41.997,17.587,41.997,38.998C568.349,245.458,552.354,262.102,529.445,262.102z"/>
</g>
<g display="none">
	<path display="inline" d="M466.229,261.303l-0.334-9.974c23.759-0.796,42.366-18.963,42.366-41.358
		c0-6.757-1.688-13.221-5.025-19.212c-6.287-11.299-17.973-19.36-31.258-21.571l1.641-9.842c16.255,2.7,30.586,12.629,38.338,26.559
		c4.112,7.389,6.287,15.71,6.287,24.066C518.241,237.777,495.396,260.325,466.229,261.303z"/>
</g>
<g display="none">
	<path display="inline" d="M451.642,260.59l-0.281-8.548c24.144-0.81,43.055-19.289,43.055-42.071c0-6.88-1.721-13.461-5.117-19.559
		c-5.321-9.562-14.203-16.766-25.006-20.284l2.649-8.133c12.858,4.188,23.453,12.804,29.827,24.256
		c4.057,7.281,6.197,15.483,6.197,23.72C502.966,237.393,480.421,259.625,451.642,260.59z"/>
</g>
<g display="none">
	<path display="inline" d="M436.367,259.88v-7.128h2.525c24.41-0.82,43.625-19.611,43.625-42.781c0-7.002-1.75-13.699-5.205-19.906
		c-4.387-7.879-11.146-14.19-19.554-18.262l3.107-6.414c9.729,4.709,17.571,12.045,22.671,21.209
		c3.995,7.176,6.105,15.258,6.105,23.373c0,27.034-22.238,48.955-50.634,49.907L436.367,259.88z"/>
</g>
<g display="none">
	<path display="inline" d="M417.935,280.839h12.412v2.495h-9.436v7.659h8.721v2.462h-8.721v10.43h-2.979L417.935,280.839
		L417.935,280.839z"/>
	<path display="inline" d="M442.119,303.885l-0.239-2.085h-0.103c-0.928,1.3-2.701,2.462-5.062,2.462
		c-3.35,0-5.059-2.356-5.059-4.754c0-4.001,3.555-6.188,9.951-6.156v-0.338c0-1.371-0.379-3.832-3.765-3.832
		c-1.54,0-3.146,0.479-4.311,1.23l-0.685-1.982c1.366-0.892,3.353-1.471,5.438-1.471c5.062,0,6.293,3.453,6.293,6.77v6.189
		c0,1.438,0.066,2.84,0.271,3.967H442.119z M441.674,295.439c-3.283-0.068-7.008,0.513-7.008,3.727c0,1.949,1.297,2.873,2.837,2.873
		c2.155,0,3.522-1.367,4.001-2.771c0.104-0.306,0.17-0.646,0.17-0.957V295.439L441.674,295.439z"/>
	<path display="inline" d="M452.934,282.582v4.753h4.312v2.292h-4.312v8.924c0,2.053,0.582,3.217,2.262,3.217
		c0.783,0,1.363-0.104,1.74-0.207l0.139,2.256c-0.579,0.238-1.503,0.412-2.667,0.412c-1.4,0-2.528-0.443-3.247-1.268
		c-0.854-0.889-1.164-2.357-1.164-4.309v-9.025h-2.563v-2.292h2.563v-3.968L452.934,282.582z"/>
	<path display="inline" d="M484.097,303.134c-1.095,0.546-3.28,1.095-6.087,1.095c-6.499,0-11.388-4.104-11.388-11.662
		c0-7.217,4.889-12.104,12.036-12.104c2.874,0,4.687,0.618,5.472,1.028l-0.719,2.428c-1.127-0.549-2.733-0.958-4.649-0.958
		c-5.398,0-8.992,3.455-8.992,9.506c0,5.643,3.248,9.27,8.855,9.27c1.812,0,3.659-0.377,4.855-0.959L484.097,303.134z"/>
	<path display="inline" d="M487.732,279.607h3.008v24.274h-3.008V279.607z"/>
	<path display="inline" d="M510.785,295.475c0,6.119-4.241,8.787-8.242,8.787c-4.48,0-7.933-3.283-7.933-8.516
		c0-5.54,3.622-8.787,8.204-8.787C507.568,286.959,510.785,290.412,510.785,295.475z M497.653,295.645
		c0,3.625,2.086,6.361,5.023,6.361c2.873,0,5.025-2.704,5.025-6.43c0-2.805-1.4-6.361-4.956-6.361S497.653,292.5,497.653,295.645z"
		/>
	<path display="inline" d="M528.438,299.372c0,1.709,0.036,3.213,0.143,4.513h-2.668l-0.173-2.699h-0.066
		c-0.788,1.332-2.531,3.076-5.472,3.076c-2.604,0-5.71-1.438-5.71-7.25v-9.677h3.007v9.163c0,3.146,0.958,5.27,3.694,5.27
		c2.017,0,3.42-1.401,3.965-2.735c0.173-0.445,0.273-0.991,0.273-1.54v-10.154h3.01L528.438,299.372L528.438,299.372z"/>
	<path display="inline" d="M547.736,279.607v20.004c0,1.47,0.033,3.146,0.136,4.271h-2.7l-0.137-2.873h-0.069
		c-0.922,1.851-2.938,3.249-5.642,3.249c-4.001,0-7.078-3.386-7.078-8.408c-0.036-5.508,3.387-8.894,7.421-8.894
		c2.531,0,4.24,1.196,4.992,2.526h0.064v-9.881h3.013V279.607L547.736,279.607z M544.727,294.07c0-0.377-0.031-0.889-0.137-1.264
		c-0.443-1.916-2.086-3.49-4.341-3.49c-3.113,0-4.959,2.735-4.959,6.396c0,3.351,1.64,6.12,4.89,6.12
		c2.021,0,3.864-1.334,4.41-3.589c0.104-0.412,0.137-0.821,0.137-1.302V294.07z"/>
</g>
<path fill="#EEEEEE" d="M36.602,13.987c-2.869-4.544-8.001-7.333-13.596-7.333c-7.184,0-13.464,4.638-15.321,11.164
	c-4.404,0.944-7.607,4.833-7.607,9.439c0,5.324,4.332,9.657,9.657,9.657h13.783c4.926,0,10.882,0.018,12.636,0.021l0.51,0.002
	c6.622,0,11.248-4.813,11.248-11.709C47.911,19.302,42.91,14.417,36.602,13.987z M34.461,16.142
	c0.981,1.763,1.479,3.666,1.479,5.655c0,5.141-3.328,9.521-8.109,11.314c3.313-2.744,5.391-6.789,5.391-11.314
	c0-2.436-0.634-4.863-1.833-7.016c-0.925-1.662-2.175-3.124-3.65-4.331C30.58,11.504,32.984,13.489,34.461,16.142z M26.971,14.853
	c-0.778-1.4-1.778-2.656-2.948-3.732c2.119,1.159,3.893,2.869,5.049,4.95c0.995,1.785,1.5,3.712,1.5,5.727
	c0,4.583-2.616,8.573-6.547,10.696c2.943-2.695,4.762-6.485,4.762-10.696C28.786,19.386,28.157,16.985,26.971,14.853z
	 M24.913,15.999c1.007,1.807,1.518,3.758,1.518,5.798c0,4.725-2.744,8.818-6.84,10.938c3.189-2.662,5.189-6.566,5.189-10.938
	c0-2.361-0.615-4.714-1.778-6.802c-0.884-1.589-2.054-2.987-3.453-4.15C21.821,12.018,23.688,13.796,24.913,15.999z M3.022,27.258
	c0-3.45,2.584-6.32,6.01-6.676l1.067-0.112l0.222-1.05c0.764-3.646,3.229-6.649,6.521-8.339c1.944,1.192,3.528,2.818,4.618,4.773
	c1.031,1.854,1.554,3.852,1.554,5.942c0,5.718-3.922,10.539-9.416,12.173H9.735C6.033,33.97,3.022,30.958,3.022,27.258z
	 M36.663,33.994l-0.5-0.002c-0.692-0.002-2.04-0.006-3.72-0.01c3.921-2.75,6.439-7.179,6.439-12.188c0-1.562-0.259-3.12-0.759-4.606
	c3.937,0.962,6.843,4.206,6.843,8.041C44.967,30.472,41.63,33.994,36.663,33.994z"/>
<path fill="#EEEEEE" d="M74.85,13.335c1.778,0,3.077-0.52,3.077-2.446s-1.298-2.447-3.077-2.447H61.466
	c-2.151,0-3.56,0.852-3.56,3.562v20.572c0,1.818,1.187,3.043,3.04,3.043c1.854,0,3.04-1.225,3.04-3.043v-8.337h9.194
	c1.596,0,2.855-0.447,2.855-2.341c0-1.887-1.26-2.336-2.855-2.336h-9.194v-6.229H74.85V13.335z"/>
<path fill="#EEEEEE" d="M96.394,20.828c0-3.894-3.597-5.563-8.788-5.563c-5.562,0-8.602,2.744-8.602,4.894
	c0,1.111,0.927,2.076,2.299,2.076c2.15,0,2.261-2.962,6.265-2.962c1.816,0,3.411,0.666,3.411,2.224c0,1.561-1.039,1.854-2.336,2.001
	l-3.3,0.372c-4.153,0.482-7.563,1.74-7.563,6.227c0,3.414,3.039,5.525,6.117,5.525c2.854,0,5.301-0.813,7.416-3.15
	c0.074,1.67,0.852,3.15,3.187,3.15c1.299,0,2.449-0.85,2.449-2.077c0-0.851-0.557-1.37-0.557-3.632L96.394,20.828L96.394,20.828z
	 M90.979,28.13c0,2.003-1.816,3.929-4.782,3.929c-1.853,0-3.003-1.001-3.003-2.225c0-1.632,1.224-2.335,3.486-2.669l1.964-0.296
	c0.63-0.109,1.743-0.295,2.335-0.851V28.13z"/>
<path fill="#EEEEEE" d="M109.517,19.305c1.594,0,2.447-0.483,2.447-1.778c0-1.299-0.854-1.78-2.447-1.78h-1.631v-3.3
	c0-1.776-1.077-2.704-2.708-2.704c-1.633,0-2.707,0.928-2.707,2.704v3.3h-0.928c-1.519,0-2.148,0.593-2.148,1.78
	c0,1.185,0.63,1.778,2.148,1.778h0.928V30.8c0,3.188,1.633,4.817,5.562,4.817c2.597,0,3.932-0.852,3.932-2.409
	c0-1.151-0.705-1.818-1.893-1.818h-0.777c-0.965,0-1.408-0.443-1.408-1.261V19.303h1.631V19.305z"/>
<path fill="#EEEEEE" d="M137.148,12.708c5.562,0,4.522,4.819,8.045,4.819c1.817,0,2.744-1.039,2.744-2.745
	c0-2.596-3.817-6.969-10.789-6.969c-8.599,0-13.05,6.449-13.05,13.978c0,9.194,4.932,13.976,13.274,13.976
	c5.894,0,10.564-3.816,10.564-7.675c0-1.48-1.483-2.334-2.966-2.334c-2.927,0-2.814,5.116-7.599,5.116
	c-5.265,0-7.193-4.228-7.193-9.083C130.178,16.005,133.329,12.708,137.148,12.708z"/>
<path fill="#EEEEEE" d="M154.056,7.961c-1.633,0-2.707,0.927-2.707,2.707v22.245c0,1.776,1.074,2.704,2.707,2.704
	c1.632,0,2.706-0.928,2.706-2.704V10.668C156.762,8.889,155.688,7.961,154.056,7.961z"/>
<path fill="#EEEEEE" d="M170.555,15.265c-6.525,0-10.011,4.451-10.011,10.159c0,5.415,2.633,10.195,10.011,10.195
	s10.011-4.78,10.011-10.195C180.563,19.714,177.079,15.265,170.555,15.265z M170.555,31.614c-3.224,0-4.599-2.891-4.599-6.19
	c0-3.525,1.446-6.156,4.599-6.156c3.151,0,4.598,2.633,4.598,6.156C175.15,28.724,173.777,31.614,170.555,31.614z"/>
<path fill="#EEEEEE" d="M199.694,15.265c-2.109,0-2.703,1.261-2.703,2.705v8.933c0,2.708-2.227,4.265-4.116,4.265
	c-2.339,0-3.411-1.557-3.411-3.742V17.97c0-1.446-0.594-2.705-2.706-2.705c-2.113,0-2.707,1.261-2.707,2.705V28.5
	c0,5.487,3.561,7.119,6.823,7.119c3.077,0,5.044-1.408,6.562-3.411h0.078v0.705c0,1.631,0.741,2.704,2.443,2.704
	c1.705,0,2.449-1.073,2.449-2.704V17.97C202.402,16.523,201.812,15.265,199.694,15.265z"/>
<path fill="#EEEEEE" d="M222.348,7.961c-1.629,0-2.708,0.927-2.708,2.707v7.34h-0.072c-1.076-1.743-2.931-2.746-5.338-2.746
	c-5.713,0-8.341,4.858-8.341,10.047c0,7.008,3.965,10.308,8.487,10.308c2.634,0,4.82-1.11,5.713-3.412h0.072v0.852
	c0,1.67,0.854,2.559,2.446,2.559c1.667,0,2.447-0.891,2.447-2.559V10.666C225.055,8.889,223.979,7.961,222.348,7.961z
	 M215.601,31.395c-2.893-0.076-4.301-2.705-4.301-5.897c0-2.521,0.854-6.006,4.301-6.006c3.297-0.037,4.338,3.225,4.338,6.006
	C219.94,28.572,218.752,31.395,215.601,31.395z"/>
</svg>
