<?xml version="1.0" encoding="utf-8"?>
<!-- Generator: Adobe Illustrator 16.0.0, SVG Export Plug-In . SVG Version: 6.00 Build 0)  -->
<!DOCTYPE svg PUBLIC "-//W3C//DTD SVG 1.1//EN" "http://www.w3.org/Graphics/SVG/1.1/DTD/svg11.dtd">
<svg version="1.1" id="Layer_1" xmlns="http://www.w3.org/2000/svg" xmlns:xlink="http://www.w3.org/1999/xlink" x="0px" y="0px"
	 width="56.667px" height="37px" viewBox="0 0 56.667 37" enable-background="new 0 0 56.667 37" xml:space="preserve">
<path display="none" fill="none" stroke="#000000" stroke-width="4" stroke-miterlimit="10" d="M293.625,224.438
	c-2.345-1.013-5.125-1.188-7.25-0.25c-1.75-5.875-7.579-10.104-13.958-10.104c-6.088,0-11.312,3.585-13.563,8.701
	c-0.471-0.069-0.945-0.117-1.437-0.117c-5.385,0-9.75,4.365-9.75,9.75s4.365,9.75,9.75,9.75c2.367,0,28.493,0,31.417,0
	c5.359,0,9.764-2.354,9.791-7.854C298.648,229.75,297.168,225.968,293.625,224.438z"/>
<path display="none" fill="none" stroke="#000000" stroke-width="4" stroke-miterlimit="10" d="M347.518,218.32
	c-1.687,0-3.293,0.306-4.768,0.847c-2.719-3.114-6.811-5.083-11.161-5.083c-6.088,0-11.312,3.585-13.562,8.701
	c-0.472-0.069-0.946-0.117-1.438-0.117c-5.385,0-9.75,4.365-9.75,9.75s4.365,9.75,9.75,9.75c2.367,0,28.493,0,31.417,0
	c0.019,0,0.032-0.001,0.049-0.001c0.204,0.01,0.407,0.031,0.612,0.031c7.065,0,11.646-5.113,11.646-12.196
	C360.312,223.549,354.583,218.32,347.518,218.32z"/>
<g display="none">
	<path display="inline" fill="none" stroke="#000000" stroke-width="4" stroke-miterlimit="10" d="M507.594,188.331"/>
</g>
<g display="none">
	<g display="inline">
		<path d="M484.893,262.018h-46.906c-18.474,0-33.501-15.026-33.501-33.5c0-15.838,10.914-29.227,25.978-32.653
			c6.541-22.252,28.033-38.022,52.594-38.022c20.251,0,38.742,10.621,48.261,27.719c4.171,7.491,6.376,15.935,6.376,24.412
			c0,28.192-23.148,51.053-52.699,52.045H484.893z M483.055,169.246c-20.582,0-38.413,13.792-42.396,32.794l-0.854,4.072
			l-4.138,0.43c-11.276,1.172-19.78,10.618-19.78,21.974c0,12.187,9.912,22.099,22.099,22.099h46.717
			c23.324-0.828,41.584-18.664,41.584-40.644c0-6.635-1.662-12.98-4.938-18.865C513.842,177.621,499.171,169.246,483.055,169.246z"
			/>
	</g>
</g>
<g display="none">
	<path display="inline" d="M529.445,262.102l-1.734-0.006c-5.956-0.017-26.188-0.078-42.913-0.078v-11.402
		c16.74,0,36.985,0.062,42.946,0.076l1.701,0.007c16.445,0,27.498-11.683,27.498-29.07c0-15.146-13.743-27.524-30.638-27.593
		l0.044-11.405c23.158,0.093,41.997,17.587,41.997,38.998C568.349,245.458,552.354,262.102,529.445,262.102z"/>
</g>
<g display="none">
	<path display="inline" d="M466.229,261.303l-0.334-9.974c23.758-0.796,42.366-18.963,42.366-41.358
		c0-6.757-1.688-13.221-5.026-19.212c-6.287-11.299-17.972-19.36-31.257-21.571l1.64-9.843c16.255,2.701,30.586,12.63,38.338,26.561
		c4.112,7.387,6.287,15.709,6.287,24.064C518.241,237.777,495.396,260.325,466.229,261.303z"/>
</g>
<g display="none">
	<path display="inline" d="M451.642,260.59l-0.282-8.548c24.144-0.81,43.055-19.289,43.055-42.071c0-6.88-1.721-13.461-5.117-19.559
		c-5.321-9.562-14.203-16.766-25.006-20.284l2.648-8.133c12.86,4.188,23.455,12.804,29.829,24.256
		c4.056,7.281,6.197,15.483,6.197,23.72C502.966,237.393,480.421,259.625,451.642,260.59z"/>
</g>
<g display="none">
	<path display="inline" d="M436.367,259.88v-7.128h2.527c24.409-0.82,43.625-19.611,43.625-42.781c0-7.002-1.75-13.699-5.207-19.906
		c-4.386-7.879-11.146-14.191-19.553-18.262l3.107-6.414c9.729,4.709,17.572,12.045,22.671,21.209
		c3.995,7.176,6.106,15.258,6.106,23.373c0,27.034-22.239,48.955-50.634,49.907L436.367,259.88z"/>
</g>
<g display="none">
	<path display="inline" d="M417.935,280.839h12.412v2.495h-9.436v7.659h8.721v2.462h-8.721v10.43h-2.979L417.935,280.839
		L417.935,280.839z"/>
	<path display="inline" d="M442.119,303.885l-0.239-2.085h-0.103c-0.927,1.3-2.701,2.461-5.062,2.461
		c-3.35,0-5.059-2.356-5.059-4.753c0-4.001,3.555-6.188,9.951-6.156v-0.338c0-1.371-0.377-3.832-3.764-3.832
		c-1.54,0-3.146,0.479-4.311,1.23l-0.684-1.982c1.366-0.892,3.352-1.471,5.437-1.471c5.062,0,6.293,3.453,6.293,6.77v6.189
		c0,1.438,0.067,2.84,0.271,3.967H442.119z M441.674,295.439c-3.283-0.068-7.008,0.513-7.008,3.727c0,1.949,1.297,2.873,2.837,2.873
		c2.155,0,3.522-1.367,4.001-2.771c0.104-0.306,0.17-0.646,0.17-0.957V295.439L441.674,295.439z"/>
	<path display="inline" d="M452.934,282.582v4.753h4.312v2.292h-4.312v8.924c0,2.053,0.582,3.217,2.261,3.217
		c0.784,0,1.364-0.104,1.741-0.207l0.138,2.256c-0.579,0.238-1.503,0.412-2.667,0.412c-1.4,0-2.528-0.444-3.247-1.268
		c-0.854-0.889-1.164-2.357-1.164-4.309v-9.025h-2.563v-2.292h2.563v-3.968L452.934,282.582z"/>
	<path display="inline" d="M484.097,303.134c-1.095,0.546-3.282,1.095-6.087,1.095c-6.499,0-11.388-4.104-11.388-11.662
		c0-7.217,4.889-12.104,12.036-12.104c2.874,0,4.687,0.618,5.472,1.028l-0.719,2.428c-1.127-0.549-2.733-0.958-4.649-0.958
		c-5.399,0-8.992,3.455-8.992,9.506c0,5.642,3.248,9.269,8.855,9.269c1.812,0,3.659-0.377,4.855-0.959L484.097,303.134z"/>
	<path display="inline" d="M487.732,279.607h3.008v24.275h-3.008V279.607z"/>
	<path display="inline" d="M510.785,295.475c0,6.119-4.241,8.786-8.242,8.786c-4.48,0-7.933-3.282-7.933-8.515
		c0-5.54,3.622-8.787,8.204-8.787C507.568,286.959,510.785,290.412,510.785,295.475z M497.653,295.645
		c0,3.625,2.086,6.361,5.024,6.361c2.873,0,5.025-2.704,5.025-6.43c0-2.805-1.4-6.361-4.956-6.361
		C499.19,289.215,497.653,292.5,497.653,295.645z"/>
	<path display="inline" d="M528.438,299.372c0,1.709,0.036,3.213,0.142,4.513h-2.668l-0.173-2.699h-0.066
		c-0.788,1.332-2.531,3.075-5.472,3.075c-2.603,0-5.71-1.437-5.71-7.25v-9.676h3.007v9.163c0,3.146,0.958,5.27,3.694,5.27
		c2.017,0,3.42-1.402,3.965-2.736c0.173-0.445,0.274-0.991,0.274-1.54v-10.154h3.009L528.438,299.372L528.438,299.372z"/>
	<path display="inline" d="M547.736,279.607v20.004c0,1.47,0.033,3.146,0.136,4.271h-2.7l-0.137-2.873h-0.069
		c-0.922,1.85-2.938,3.249-5.642,3.249c-4.001,0-7.078-3.386-7.078-8.409c-0.036-5.507,3.387-8.893,7.421-8.893
		c2.531,0,4.24,1.197,4.992,2.527h0.065v-9.881h3.012V279.607L547.736,279.607z M544.727,294.07c0-0.377-0.032-0.889-0.137-1.264
		c-0.443-1.916-2.086-3.49-4.341-3.49c-3.113,0-4.959,2.736-4.959,6.396c0,3.351,1.64,6.12,4.89,6.12
		c2.021,0,3.864-1.334,4.41-3.589c0.104-0.412,0.137-0.821,0.137-1.302V294.07z"/>
</g>
<path fill="#010101" d="M41.036,10.69c-2.869-4.544-8.001-7.333-13.596-7.333c-7.184,0-13.464,4.638-15.321,11.164
	c-4.404,0.944-7.607,4.833-7.607,9.439c0,5.324,4.332,9.657,9.657,9.657h13.783c4.926,0,10.882,0.018,12.636,0.021l0.51,0.003
	c6.622,0,11.248-4.813,11.248-11.709C52.345,16.005,47.344,11.12,41.036,10.69z M38.895,12.845c0.981,1.763,1.479,3.666,1.479,5.655
	c0,5.141-3.328,9.521-8.109,11.314c3.313-2.743,5.391-6.789,5.391-11.314c0-2.436-0.634-4.863-1.833-7.016
	c-0.925-1.662-2.175-3.124-3.65-4.331C35.014,8.207,37.418,10.192,38.895,12.845z M31.405,11.556
	c-0.778-1.4-1.778-2.656-2.948-3.732c2.119,1.159,3.893,2.869,5.049,4.95c0.995,1.785,1.5,3.712,1.5,5.727
	c0,4.583-2.616,8.573-6.547,10.696c2.943-2.695,4.762-6.485,4.762-10.696C33.22,16.089,32.591,13.688,31.405,11.556z M29.347,12.702
	c1.007,1.807,1.518,3.758,1.518,5.798c0,4.725-2.744,8.818-6.84,10.938c3.189-2.662,5.189-6.567,5.189-10.938
	c0-2.361-0.615-4.714-1.778-6.802c-0.884-1.589-2.054-2.987-3.453-4.15C26.255,8.721,28.122,10.499,29.347,12.702z M7.456,23.961
	c0-3.45,2.584-6.32,6.01-6.676l1.067-0.112l0.222-1.05c0.764-3.646,3.229-6.649,6.521-8.339c1.944,1.192,3.528,2.818,4.618,4.773
	c1.031,1.854,1.554,3.852,1.554,5.942c0,5.718-3.922,10.539-9.416,12.173h-3.863C10.467,30.673,7.456,27.661,7.456,23.961z
	 M41.097,30.697l-0.5-0.001c-0.692-0.003-2.04-0.007-3.72-0.011c3.921-2.75,6.439-7.178,6.439-12.188
	c0-1.562-0.259-3.12-0.759-4.606c3.937,0.962,6.843,4.206,6.843,8.04C49.401,27.175,46.064,30.697,41.097,30.697z"/>
</svg>
